<svg id="Layer_1" data-name="Layer 1" xmlns="http://www.w3.org/2000/svg" viewBox="0 0 191.9 50.26"><defs><style>.cls-1{fill:#fff;}.cls-2{fill:#fec303;}</style></defs><path class="cls-1" d="M67.58,20.59H62.36V16.86a1.31,1.31,0,0,0-.27-1,1.46,1.46,0,0,0-1-.25H59a1.46,1.46,0,0,0-1,.25,1.31,1.31,0,0,0-.27,1V35.31a1.28,1.28,0,0,0,.27,1,1.46,1.46,0,0,0,1,.25H61.1a1.46,1.46,0,0,0,1-.25,1.28,1.28,0,0,0,.27-1V29H60.11V25.36h7.47V35.85q0,4.45-4.9,4.45H57.41q-4.9,0-4.9-4.45V16.32q0-4.46,4.9-4.46h5.27q4.91,0,4.9,4.46Z" transform="translate(-1 -1)"/><path class="cls-1" d="M82.57,40.26H77.39v-9l-6.61-19.4H76l3.87,14.58,3.65-14.58h5.26L82.57,31.12Z" transform="translate(-1 -1)"/><path class="cls-1" d="M97.06,40.26H92.47V11.86h5.67l4.77,16.88,4.77-16.88h5.67v28.4H108.8V20.32L105,34.09h-4.18L97.06,20.37Z" transform="translate(-1 -1)"/><path class="cls-1" d="M119.33,11.86h5.18v28.4h-5.18Z" transform="translate(-1 -1)"/><path class="cls-1" d="M139.45,35.08V29a1.31,1.31,0,0,0-.27-1,1.46,1.46,0,0,0-1-.25h-3.65q-4.64,0-4.63-4.5v-7q0-4.46,4.86-4.46h4.95q4.86,0,4.86,4.46v4h-5.22V17a1.31,1.31,0,0,0-.27-1,1.46,1.46,0,0,0-1-.25h-1.71a1.56,1.56,0,0,0-1,.25,1.31,1.31,0,0,0-.27,1v5.71a1.32,1.32,0,0,0,.27,1,1.62,1.62,0,0,0,1,.25h3.55q4.73,0,4.73,4.41V35.8q0,4.46-4.91,4.46H134.9q-4.91,0-4.9-4.46V31.89h5.17v3.19a1.32,1.32,0,0,0,.27,1,1.62,1.62,0,0,0,1,.25h1.71a1.51,1.51,0,0,0,1-.25A1.32,1.32,0,0,0,139.45,35.08Z" transform="translate(-1 -1)"/><path class="cls-1" d="M162.94,11.86v4h-5V40.26h-5.17V15.82h-5v-4Z" transform="translate(-1 -1)"/><path class="cls-1" d="M166.94,11.86h5.18v28.4h-5.18Z" transform="translate(-1 -1)"/><path class="cls-1" d="M192.9,21.27h-5.21V16.86a1.26,1.26,0,0,0-.28-1,1.44,1.44,0,0,0-1-.25h-2.12a1.46,1.46,0,0,0-1,.25,1.31,1.31,0,0,0-.27,1V35.31a1.28,1.28,0,0,0,.27,1,1.46,1.46,0,0,0,1,.25h2.12a1.44,1.44,0,0,0,1-.25,1.24,1.24,0,0,0,.28-1V31h5.21v4.86q0,4.45-4.9,4.45h-5.27q-4.9,0-4.9-4.45V16.32q0-4.46,4.9-4.46H188q4.91,0,4.9,4.46Z" transform="translate(-1 -1)"/><path class="cls-2" d="M22.58,2.36a17.53,17.53,0,0,0-2.32,1.75c-.16.25,0,.6.51,1.25.69.87.72,1,.38,1.34a1.42,1.42,0,0,0-.36.76c0,.41.81,1.1,1.77,1.5.58.25.69.41.83,1.48a28.23,28.23,0,0,1,0,3.42c-.06,2.13-.11,2.28-.89,3.42a14.14,14.14,0,0,0-1.81,3.6c-.14.36-.25.34-1.44-.27-3.26-1.63-6.48-2-8.4-1.05-.59.29-1.12.43-1.19.34a6.19,6.19,0,0,0-2.59-1.21c-.74-.13-.81-.22-.94-1.16A25.53,25.53,0,0,1,6,15V13.44L7,13c2.91-1.5,7.58-2.44,12.1-2.46,2.37,0,2.86,0,2.53-.27-1.77-1.1-2.55-2.35-2.13-3.45.14-.38.07-.62-.31-1l-.49-.56-2.57.23A32.87,32.87,0,0,0,3,9.14L1,10.22l0,4.67a38.31,38.31,0,0,0,.52,7.56c2.14,12.32,8.34,22.3,17.33,27.84l1.52,1L22,50.32c.87-.52,2.19-1.41,2.93-2,1.39-1.05,5.55-5.17,5.39-5.32s-.54.24-1.07.64A8.78,8.78,0,0,1,23.9,45.6c-2.46.13-3.17-.11-5.23-1.77S12.92,38,13.21,37.72a3.93,3.93,0,0,1,1.28.12c1.34.24,2.37.09,6.08-.94a38.27,38.27,0,0,1,5-1c4.41-.53,4.88-.67,5.91-1.79A9.65,9.65,0,0,0,34,27c0-3.37-.87-6.53-3.74-13.44A33,33,0,0,1,28.62,9c0-.34.16-1.5.34-2.6a10.58,10.58,0,0,0,.2-2.48C29.09,3.62,28.33,3,27,2.25,25.85,1.6,24.89,1,24.82,1A20.37,20.37,0,0,0,22.58,2.36Zm5.15,8.39a49.76,49.76,0,0,1,3.58,7.83,8.83,8.83,0,0,1,.62,4.58,11,11,0,0,1-2,6.45c-.45.69-.74,1.27-.63,1.27a11.08,11.08,0,0,0,1.77-1.48c1.72-1.63,1.77-1.61,1.21.88-.45,1.92-.76,2.43-2,3.28A5.7,5.7,0,0,1,26,34.73c-.85-.18-1.68-.14-4.18.2-3.51.51-5.26.45-7.16-.27a6.29,6.29,0,0,1-3.33-3.29A4.12,4.12,0,0,0,9.7,29.65c-1.14-.76-1.23-.87-1.77-2.64A46.55,46.55,0,0,1,6.7,21.78c0-.07.23,0,.47.29.58.51.81,1,1.34,3.2a9,9,0,0,0,.79,2.08,3.45,3.45,0,0,0,2.35.8c.42-.06.38-.13-.36-.62-2.6-1.68-2.4-5.26.38-7.09a3.29,3.29,0,0,1,2.39-.63,5.3,5.3,0,0,1,2.93.72c1.66.8,3.11,1.94,2.84,2.21a2.91,2.91,0,0,1-1.45-.47L17,21.53a9.83,9.83,0,0,0,1.23,1.28c1.25,1.2,1.38,1.41,1.36,2.19A4.49,4.49,0,0,1,18,28.09c-.44.42-.74.78-.65.78a9.69,9.69,0,0,0,2.42-1.28c.34-.29.45-.27,1,.14a7.17,7.17,0,0,0,3.31.91h.64l-.53-.35a7.12,7.12,0,0,1-2.48-2.73,12.63,12.63,0,0,1,.38-5.39,14.4,14.4,0,0,1,1.56-2.4C25,16,25,15.56,24.57,12.52c-.18-1.19-.18-1.63,0-1.88.53-.63.85-.34,1.4,1.27l.56,1.64,0-1.59C26.61,9.86,26.88,9.57,27.73,10.75Z" transform="translate(-1 -1)"/><path class="cls-2" d="M30.23,7.71a3.37,3.37,0,0,0,.31,2.8c.52,1.16.7,1.38,1.41,1.61,1.41.44,2.89,1.29,3,1.7.7,2.25.81,9.5.25,13.82a72.55,72.55,0,0,1-2.91,12.52c-.38,1.1,1.88-2.73,3.16-5.37A46,46,0,0,0,40,13.46l-.06-3.24L37.46,8.94a29.88,29.88,0,0,0-6.4-2.53C30.5,6.3,30.48,6.35,30.23,7.71Z" transform="translate(-1 -1)"/></svg>